<?xml version="1.0" encoding="utf-8"?>
<!-- Generator: Adobe Illustrator 21.1.0, SVG Export Plug-In . SVG Version: 6.00 Build 0)  -->
<svg version="1.1" baseProfile="tiny" id="Layer_1" xmlns="http://www.w3.org/2000/svg" xmlns:xlink="http://www.w3.org/1999/xlink"
	 x="0px" y="0px" viewBox="0 0 381 313" xml:space="preserve">
<g>
	<path fill="transparent" d="M75,121.1C75,82,75,42.8,74.9,3.7C74.9,1,75.2,0,78.4,0c74.1,0.1,148.2,0.1,222.3,0c2.8,0,3.3,0.7,3.3,3.4
		c-0.1,78.4-0.1,156.8,0,235.2c0,3.4-1.2,3.4-3.8,3.4c-73.9-0.1-147.8-0.1-221.8,0c-3.1,0-3.5-0.7-3.5-3.6
		C75,199.3,75,160.2,75,121.1z M162,192.3c0,4.2-0.1,8.4,0,12.5c0.2,8.4,5.8,14.9,14.2,16.2c6.4,1,13,0.9,19.4,0.1
		c9.2-1.1,14.9-7.6,15.1-16.9c0.1-4.2,0.2-8.4,0-12.5c-1.3-23.3,5.3-44,19.2-62.8c8.1-10.8,10.8-23.4,9.1-37
		c-2.6-21.5-18.6-39.9-39.2-45.2c-21.7-5.5-44.6,2.9-57.2,21.2c-12.7,18.3-13.3,42.7-0.2,60.7C156.3,147.7,163.2,168.6,162,192.3z
		 M217.7,47.7c1.4-0.1,2.4-0.7,3-1.7c3.3-5.6,6.5-11.2,9.7-16.9c1-1.8,0.2-3.3-1.3-4.3c-1.6-1-3.4-0.8-4.4,0.8
		c-3.5,5.8-7.1,11.7-10.1,17.7C213.4,45.6,215.3,47.2,217.7,47.7z M158,43.2c-3.3-5.8-6.3-12.7-11.2-18.4c-0.9-1-2.5-0.7-3.7,0.2
		c-1.5,1.3-1.6,3-0.8,4.6c3.1,5.6,6.2,11,9.5,16.5c0.8,1.4,2.3,1.9,3.9,1.4C157.3,46.9,158,45.7,158,43.2z M134.9,67.7
		c0-1.6-0.4-2.5-1.3-3.1c-5.7-3.4-11.4-6.7-17.1-10c-1.5-0.8-3-0.4-4,0.9c-1,1.5-1.3,3.5,0.2,4.5c5.9,3.7,11.8,7.3,18,10.4
		C133.1,71.8,134.6,69.8,134.9,67.7z M256.3,54.4c-5.7,3.7-12.6,6.4-18.3,11.3c-1.1,0.9-0.7,2.5,0.2,3.7c1,1.3,2.4,2,3.9,1.1
		c5.9-3.3,11.7-6.8,17.5-10.3c1.2-0.7,1.6-2.1,0.9-3.5C259.8,55.2,258.7,54.4,256.3,54.4z M182.9,26.1c0,3,0,6,0,9
		c0,2.3,0.9,4.1,3.4,4c2.4-0.1,3.5-1.8,3.5-4c0.1-6,0.1-12,0-18.1c0-2.3-1.3-3.9-3.8-3.8c-2.3,0.1-3.1,1.7-3.1,3.8
		C182.8,20,182.9,23,182.9,26.1z M113.7,102.5c2.8,0,5.7,0,8.5,0c2.5,0,4.4-1,4.4-3.6c-0.1-2.4-1.9-3.3-4.2-3.3
		c-5.8,0-11.6,0-17.5,0c-2.3,0-4,0.9-4,3.4c0,2.9,1.9,3.6,4.3,3.6C108,102.5,110.9,102.5,113.7,102.5z M258.7,102.5c3,0,6,0,9,0
		c2.3,0,4.1-0.8,4.1-3.3c0-2.4-1.7-3.6-4-3.6c-6-0.1-12-0.1-18,0c-2.3,0-3.9,1.3-3.8,3.7c0.1,2.6,2,3.2,4.2,3.2
		C253,102.5,255.8,102.5,258.7,102.5z"/>
	<path fill="#4ABEF1" d="M162,192.3c1.3-23.7-5.7-44.6-19.6-63.7c-13.1-17.9-12.5-42.4,0.2-60.7c12.7-18.3,35.5-26.7,57.2-21.2
		c20.7,5.3,36.6,23.7,39.2,45.2c1.7,13.6-1.1,26.2-9.1,37c-13.9,18.7-20.5,39.5-19.2,62.8c0.2,4.2,0.1,8.4,0,12.5
		c-0.3,9.3-6,15.8-15.1,16.9c-6.5,0.8-13,0.9-19.4-0.1c-8.4-1.3-14-7.8-14.2-16.2C161.9,200.6,162,196.4,162,192.3z M186.2,182.6
		c0,0,0,0.1,0,0.1c1.8,0,3.7,0.1,5.5,0c3.8-0.3,8.2,1.5,11.1-0.8c2.4-2,0.6-6.4,1.3-9.6c0.1-0.5,0.2-1,0.3-1.5
		c2.3-17,9.4-31.9,19.4-45.6c8.1-11,10.1-23.6,7.4-36.7c-3.9-18.9-18.8-32.6-37.9-36c-17.7-3.1-36.7,5.7-46.3,21.3
		c-10.2,16.6-9.6,36.6,1.9,52.3c9.2,12.4,15.4,26.1,18.4,41.2c1,5.1-0.9,12.3,3.2,14.7C174.5,184.4,180.9,182.6,186.2,182.6z
		 M186.4,189.7c-4.8,0-9.6,0-14.4,0c-1,0-2.6-0.5-2.8,1.2c-0.3,2.1,1.4,1.8,2.7,1.9c9.4,1.1,18.8,2.1,28.1,3.2
		c1.8,0.2,3.8,1.2,3.8-2c0-2.4,0.3-4.7-3.4-4.5C195.7,189.9,191.1,189.7,186.4,189.7z M199.8,205.8c0.9-0.6,2.9,1.1,3.6-0.8
		c0.5-1.5-1.2-1.7-2.3-1.8c-9.7-1.1-19.4-2.2-29.1-3.2c-1-0.1-2.6-0.6-2.7,1.2c-0.1,1.6,1.5,1.5,2.6,1.6
		C181,203.7,190.2,204.8,199.8,205.8z M197.4,212.5c-8.6-0.9-17.2-1.9-27.1-3C175.7,215,189.1,216.3,197.4,212.5z"/>
	<path fill="#4ABEF1" d="M217.7,47.7c-2.4-0.4-4.3-2.1-3.1-4.4c3-6.1,6.6-11.9,10.1-17.7c1-1.6,2.8-1.8,4.4-0.8
		c1.5,1,2.3,2.6,1.3,4.3c-3.2,5.7-6.4,11.3-9.7,16.9C220.1,47,219.1,47.6,217.7,47.7z"/>
	<path fill="#4ABEF1" d="M158,43.2c0.1,2.5-0.7,3.8-2.3,4.3c-1.6,0.5-3.1,0-3.9-1.4c-3.2-5.5-6.4-10.9-9.5-16.5
		c-0.8-1.5-0.7-3.3,0.8-4.6c1.2-1,2.8-1.3,3.7-0.2C151.7,30.4,154.6,37.4,158,43.2z"/>
	<path fill="#4ABEF1" d="M134.9,67.7c-0.3,2-1.9,4.1-4.2,2.9c-6.2-3.1-12.1-6.8-18-10.4c-1.5-1-1.3-3-0.2-4.5c1-1.4,2.5-1.8,4-0.9
		c5.7,3.3,11.5,6.6,17.1,10C134.5,65.2,135,66.2,134.9,67.7z"/>
	<path fill="#4ABEF1" d="M256.3,54.4c2.4,0,3.6,0.8,4.3,2.3c0.7,1.4,0.2,2.8-0.9,3.5c-5.8,3.5-11.6,6.9-17.5,10.3
		c-1.5,0.8-2.9,0.1-3.9-1.1c-0.9-1.1-1.2-2.7-0.2-3.7C243.6,60.8,250.6,58.1,256.3,54.4z"/>
	<path fill="#4ABEF1" d="M182.9,26.1c0-3,0-6,0-9c0-2.1,0.8-3.7,3.1-3.8c2.5-0.1,3.7,1.5,3.8,3.8c0.1,6,0.1,12,0,18.1
		c0,2.3-1.1,4-3.5,4c-2.5,0.1-3.4-1.7-3.4-4C182.9,32.1,182.9,29.1,182.9,26.1z"/>
	<path fill="#4ABEF1" d="M113.7,102.5c-2.8,0-5.7,0-8.5,0c-2.5,0-4.4-0.7-4.3-3.6c0-2.5,1.7-3.4,4-3.4c5.8,0,11.6,0,17.5,0
		c2.3,0,4.1,1,4.2,3.3c0.1,2.7-1.9,3.7-4.4,3.6C119.4,102.5,116.5,102.5,113.7,102.5z"/>
	<path fill="#4ABEF1" d="M258.7,102.5c-2.8,0-5.7,0-8.5,0c-2.2,0-4.1-0.6-4.2-3.2c-0.1-2.5,1.5-3.7,3.8-3.7c6-0.1,12-0.1,18,0
		c2.3,0,4,1.2,4,3.6c0,2.5-1.8,3.4-4.1,3.3C264.7,102.5,261.7,102.5,258.7,102.5z"/>
	<path fill="transparent" d="M186.2,182.6c-5.3,0-11.8,1.8-15.7-0.5c-4.1-2.5-2.2-9.7-3.2-14.7c-3-15.2-9.2-28.8-18.4-41.2
		c-11.5-15.7-12.1-35.6-1.9-52.3c9.6-15.6,28.7-24.4,46.3-21.3c19.1,3.4,33.9,17,37.9,36c2.7,13.1,0.7,25.7-7.4,36.7
		c-10,13.7-17.1,28.6-19.4,45.6c-0.1,0.5-0.2,1-0.3,1.5c-0.7,3.2,1.1,7.6-1.3,9.6c-2.9,2.4-7.4,0.6-11.1,0.8c-1.8,0.1-3.7,0-5.5,0
		C186.2,182.7,186.2,182.6,186.2,182.6z M227,97.9c-0.2-21.1-16.7-38.9-37.2-40.4c-2.6-0.2-6.3-1.2-6.8,2.9c-0.5,4.3,3.1,3.7,5.9,4
		c17.6,1.7,30.8,15.9,31.1,33.3c0.1,3.1-1.3,7.8,3.8,7.5C228.6,104.9,226.4,100.3,227,97.9z M175.9,151.6c-0.2-0.6-0.5-1.8-0.9-2.9
		c-4.1-12.7-11.6-23.6-19-34.5c-1.3-2-3.1-2.5-5.1-1.2c-1.9,1.3-1.7,3.1-0.7,4.9c0.6,1,1.1,2.1,1.8,3c7,9.6,13.1,19.7,16.9,31.1
		c0.3,0.8,0.6,1.6,1.1,2.2c1,1.3,2.4,1.8,4,1.1C175.3,154.7,175.9,153.6,175.9,151.6z M223.9,114.1c0.1-2.2-0.7-3.3-2.2-4
		c-1.5-0.7-2.8-0.2-3.5,1c-1.9,2.9-3.6,5.9-5.2,9.1c-0.7,1.4-0.1,3,1.4,3.9c1.3,0.8,2.6,0.8,3.7-0.2
		C221.1,121.1,222.8,117.5,223.9,114.1z M152.7,103c-1.6-2.5,1.3-7.6-4-8.2c-2.9-0.3-3.8,2.4-3.5,4.9c0.3,3-0.7,6.9,3.6,7.7
		C151.5,107.8,152.5,105.7,152.7,103z"/>
	<path fill="transparent" d="M186.4,189.7c4.6,0,9.3,0.2,13.9-0.1c3.7-0.2,3.4,2.1,3.4,4.5c0,3.2-2,2.2-3.8,2
		c-9.4-1.1-18.8-2.2-28.1-3.2c-1.2-0.1-3,0.1-2.7-1.9c0.2-1.7,1.8-1.2,2.8-1.2C176.8,189.7,181.6,189.7,186.4,189.7z"/>
	<path fill="transparent" d="M199.8,205.8c-9.6-1.1-18.8-2.1-28-3.1c-1.1-0.1-2.6,0-2.6-1.6c0.1-1.8,1.7-1.3,2.7-1.2
		c9.7,1,19.4,2.1,29.1,3.2c1.1,0.1,2.8,0.3,2.3,1.8C202.7,207,200.7,205.3,199.8,205.8z"/>
	<path fill="transparent" d="M197.4,212.5c-8.3,3.8-21.7,2.5-27.1-3C180.2,210.6,188.8,211.5,197.4,212.5z"/>
	<path fill="#4ABEF1" d="M227,97.9c-0.6,2.4,1.6,7.1-3.1,7.3c-5.1,0.3-3.8-4.4-3.8-7.5c-0.3-17.4-13.6-31.6-31.1-33.3
		c-2.8-0.3-6.4,0.3-5.9-4c0.5-4.2,4.1-3.1,6.8-2.9C210.3,58.9,226.9,76.8,227,97.9z"/>
	<path fill="#4ABEF1" d="M175.9,151.6c0,2-0.6,3.1-1.9,3.7c-1.6,0.7-3,0.2-4-1.1c-0.5-0.6-0.9-1.4-1.1-2.2
		C165,140.7,159,130.5,152,121c-0.7-0.9-1.2-2-1.8-3c-1-1.8-1.2-3.6,0.7-4.9c2-1.3,3.8-0.8,5.1,1.2c7.4,10.9,14.9,21.7,19,34.5
		C175.4,149.9,175.7,151,175.9,151.6z"/>
	<path fill="#4ABEF1" d="M223.9,114.1c-1.2,3.3-2.9,6.9-5.8,9.7c-1.1,1-2.4,1-3.7,0.2c-1.5-0.9-2-2.5-1.4-3.9
		c1.5-3.1,3.3-6.1,5.2-9.1c0.7-1.1,2.1-1.6,3.5-1C223.2,110.8,224.1,111.9,223.9,114.1z"/>
	<path fill="#4ABEF1" d="M152.7,103c-0.2,2.7-1.2,4.8-3.9,4.4c-4.4-0.8-3.4-4.7-3.6-7.7c-0.3-2.6,0.6-5.2,3.5-4.9
		C154,95.4,151.1,100.5,152.7,103z"/>
</g>
<text transform="matrix(1.076 0 0 1 0 295.2031)" fill="#4ABEF1" font-family="'Verdana'" font-size="65.2873px">Подсказка</text>
</svg>
